<mxfile host="Electron" modified="2024-01-28T14:44:22.041Z" agent="Mozilla/5.0 (Windows NT 10.0; Win64; x64) AppleWebKit/537.36 (KHTML, like Gecko) draw.io/22.1.21 Chrome/120.0.6099.109 Electron/28.1.0 Safari/537.36" etag="coWaemOMjpTnJoN9Ec9j" version="22.1.21" type="device">
  <diagram name="Page-1" id="urk31W3WtWrvNNq1n1F2">
    <mxGraphModel dx="2206" dy="1286" grid="1" gridSize="10" guides="1" tooltips="1" connect="1" arrows="1" fold="1" page="1" pageScale="1" pageWidth="850" pageHeight="1100" math="0" shadow="0">
      <root>
        <mxCell id="0" />
        <mxCell id="1" parent="0" />
        <mxCell id="Df2gS6vvleMVA9pJTp9Y-8" value="Decorated Mech" style="swimlane;whiteSpace=wrap;html=1;fillColor=#33FF33;" vertex="1" parent="1">
          <mxGeometry x="250" y="40" width="760" height="380" as="geometry" />
        </mxCell>
        <mxCell id="Df2gS6vvleMVA9pJTp9Y-6" value="Mech_gen" style="swimlane;whiteSpace=wrap;html=1;fillColor=#33FF33;" vertex="1" parent="Df2gS6vvleMVA9pJTp9Y-8">
          <mxGeometry x="10" y="40" width="320" height="330" as="geometry" />
        </mxCell>
        <mxCell id="Df2gS6vvleMVA9pJTp9Y-7" value="StateMgr" style="swimlane;whiteSpace=wrap;html=1;fillColor=#33FF33;" vertex="1" parent="Df2gS6vvleMVA9pJTp9Y-6">
          <mxGeometry x="190" y="90" width="120" height="200" as="geometry" />
        </mxCell>
        <mxCell id="Df2gS6vvleMVA9pJTp9Y-49" value="State Vect" style="swimlane;childLayout=stackLayout;resizeParent=1;resizeParentMax=0;horizontal=1;startSize=20;horizontalStack=0;html=1;" vertex="1" parent="Df2gS6vvleMVA9pJTp9Y-7">
          <mxGeometry x="10" y="30" width="90" height="160" as="geometry" />
        </mxCell>
        <mxCell id="Df2gS6vvleMVA9pJTp9Y-50" value="&lt;br&gt;State1" style="swimlane;startSize=30;horizontal=0;html=1;" vertex="1" parent="Df2gS6vvleMVA9pJTp9Y-49">
          <mxGeometry y="20" width="90" height="40" as="geometry" />
        </mxCell>
        <mxCell id="Df2gS6vvleMVA9pJTp9Y-53" value="" style="shape=waypoint;sketch=0;fillStyle=solid;size=6;pointerEvents=1;points=[];fillColor=none;resizable=0;rotatable=0;perimeter=centerPerimeter;snapToPoint=1;" vertex="1" parent="Df2gS6vvleMVA9pJTp9Y-50">
          <mxGeometry x="50" y="10" width="20" height="20" as="geometry" />
        </mxCell>
        <mxCell id="Df2gS6vvleMVA9pJTp9Y-51" value="&lt;br&gt;State 2" style="swimlane;startSize=30;horizontal=0;html=1;" vertex="1" parent="Df2gS6vvleMVA9pJTp9Y-49">
          <mxGeometry y="60" width="90" height="50" as="geometry" />
        </mxCell>
        <mxCell id="Df2gS6vvleMVA9pJTp9Y-52" value="&lt;br&gt;State 3" style="swimlane;startSize=30;horizontal=0;html=1;" vertex="1" parent="Df2gS6vvleMVA9pJTp9Y-49">
          <mxGeometry y="110" width="90" height="50" as="geometry" />
        </mxCell>
        <mxCell id="Df2gS6vvleMVA9pJTp9Y-14" value="BasicMech (generated)" style="swimlane;whiteSpace=wrap;html=1;fillColor=#33FF33;" vertex="1" parent="Df2gS6vvleMVA9pJTp9Y-6">
          <mxGeometry x="10" y="110" width="164" height="190" as="geometry" />
        </mxCell>
        <mxCell id="Df2gS6vvleMVA9pJTp9Y-16" value="BaseMech" style="swimlane;whiteSpace=wrap;html=1;fillColor=#33FF33;" vertex="1" parent="Df2gS6vvleMVA9pJTp9Y-14">
          <mxGeometry x="15" y="110" width="130" height="70" as="geometry" />
        </mxCell>
        <mxCell id="Df2gS6vvleMVA9pJTp9Y-30" value="Robot element objects such as motors, solenoids, digital input" style="rounded=1;whiteSpace=wrap;html=1;" vertex="1" parent="Df2gS6vvleMVA9pJTp9Y-14">
          <mxGeometry x="20" y="35" width="120" height="65" as="geometry" />
        </mxCell>
        <mxCell id="Df2gS6vvleMVA9pJTp9Y-25" value="m_motorMap" style="rounded=1;whiteSpace=wrap;html=1;" vertex="1" parent="Df2gS6vvleMVA9pJTp9Y-6">
          <mxGeometry x="40" y="30" width="90" height="20" as="geometry" />
        </mxCell>
        <mxCell id="Df2gS6vvleMVA9pJTp9Y-157" value="m_solenoidMap" style="rounded=1;whiteSpace=wrap;html=1;" vertex="1" parent="Df2gS6vvleMVA9pJTp9Y-6">
          <mxGeometry x="40" y="50" width="90" height="20" as="geometry" />
        </mxCell>
        <mxCell id="Df2gS6vvleMVA9pJTp9Y-165" value="" style="shape=curlyBracket;whiteSpace=wrap;html=1;rounded=1;labelPosition=left;verticalLabelPosition=middle;align=right;verticalAlign=middle;" vertex="1" parent="Df2gS6vvleMVA9pJTp9Y-6">
          <mxGeometry x="14" y="31" width="20" height="60" as="geometry" />
        </mxCell>
        <mxCell id="Df2gS6vvleMVA9pJTp9Y-17" value="Mech_gen" style="swimlane;whiteSpace=wrap;html=1;fillColor=#FF9933;" vertex="1" parent="Df2gS6vvleMVA9pJTp9Y-8">
          <mxGeometry x="440" y="50" width="300" height="200" as="geometry" />
        </mxCell>
        <mxCell id="Df2gS6vvleMVA9pJTp9Y-18" value="StateMgr" style="swimlane;whiteSpace=wrap;html=1;fillColor=#FF9933;" vertex="1" parent="Df2gS6vvleMVA9pJTp9Y-17">
          <mxGeometry x="20" y="130" width="100" height="45" as="geometry" />
        </mxCell>
        <mxCell id="Df2gS6vvleMVA9pJTp9Y-20" value="BasicMech" style="swimlane;whiteSpace=wrap;html=1;fillColor=#FF9933;" vertex="1" parent="Df2gS6vvleMVA9pJTp9Y-17">
          <mxGeometry x="140" y="30" width="150" height="160" as="geometry" />
        </mxCell>
        <mxCell id="Df2gS6vvleMVA9pJTp9Y-22" value="BaseMech" style="swimlane;whiteSpace=wrap;html=1;fillColor=#FF9933;" vertex="1" parent="Df2gS6vvleMVA9pJTp9Y-20">
          <mxGeometry x="10" y="110" width="130" height="47" as="geometry" />
        </mxCell>
        <mxCell id="Df2gS6vvleMVA9pJTp9Y-171" value="Robot element objects such as motors, solenoids, digital input" style="rounded=1;whiteSpace=wrap;html=1;" vertex="1" parent="Df2gS6vvleMVA9pJTp9Y-20">
          <mxGeometry x="17.5" y="30" width="120" height="65" as="geometry" />
        </mxCell>
        <mxCell id="Df2gS6vvleMVA9pJTp9Y-168" value="m_motorMap" style="rounded=1;whiteSpace=wrap;html=1;" vertex="1" parent="Df2gS6vvleMVA9pJTp9Y-17">
          <mxGeometry x="20" y="30" width="90" height="20" as="geometry" />
        </mxCell>
        <mxCell id="Df2gS6vvleMVA9pJTp9Y-169" value="m_solenoidMap" style="rounded=1;whiteSpace=wrap;html=1;" vertex="1" parent="Df2gS6vvleMVA9pJTp9Y-17">
          <mxGeometry x="20" y="50" width="90" height="20" as="geometry" />
        </mxCell>
        <mxCell id="Df2gS6vvleMVA9pJTp9Y-170" value="m_servoMap" style="rounded=1;whiteSpace=wrap;html=1;" vertex="1" parent="Df2gS6vvleMVA9pJTp9Y-17">
          <mxGeometry x="20" y="70" width="90" height="20" as="geometry" />
        </mxCell>
        <mxCell id="Df2gS6vvleMVA9pJTp9Y-10" value="Periodic Looper" style="swimlane;whiteSpace=wrap;html=1;fillColor=#3333FF;" vertex="1" parent="1">
          <mxGeometry x="490" y="470" width="120" height="80" as="geometry" />
        </mxCell>
        <mxCell id="Df2gS6vvleMVA9pJTp9Y-27" value="Initialized in&amp;nbsp;DefineMechanisms()" style="whiteSpace=wrap;html=1;rounded=1;arcSize=50;align=center;verticalAlign=middle;strokeWidth=1;autosize=1;spacing=4;treeFolding=1;treeMoving=1;newEdgeStyle={&quot;edgeStyle&quot;:&quot;entityRelationEdgeStyle&quot;,&quot;startArrow&quot;:&quot;none&quot;,&quot;endArrow&quot;:&quot;none&quot;,&quot;segment&quot;:10,&quot;curved&quot;:1,&quot;sourcePerimeterSpacing&quot;:0,&quot;targetPerimeterSpacing&quot;:0};" vertex="1" parent="1">
          <mxGeometry x="40" y="110" width="140" height="40" as="geometry" />
        </mxCell>
        <mxCell id="Df2gS6vvleMVA9pJTp9Y-28" value="" style="edgeStyle=entityRelationEdgeStyle;startArrow=none;endArrow=none;segment=10;curved=1;sourcePerimeterSpacing=0;targetPerimeterSpacing=0;rounded=0;exitX=0.1;exitY=0.5;exitDx=0;exitDy=0;exitPerimeter=0;" edge="1" target="Df2gS6vvleMVA9pJTp9Y-27" parent="1" source="Df2gS6vvleMVA9pJTp9Y-165">
          <mxGeometry relative="1" as="geometry">
            <mxPoint x="265.23" y="113.1099999999999" as="sourcePoint" />
            <Array as="points">
              <mxPoint x="200" y="80" />
            </Array>
          </mxGeometry>
        </mxCell>
        <mxCell id="Df2gS6vvleMVA9pJTp9Y-33" value="State 1 decorator" style="swimlane;whiteSpace=wrap;html=1;fillColor=#FF33FF;" vertex="1" parent="1">
          <mxGeometry x="250" y="470" width="220" height="870" as="geometry" />
        </mxCell>
        <mxCell id="Df2gS6vvleMVA9pJTp9Y-34" value="State" style="swimlane;whiteSpace=wrap;html=1;fillColor=#FF33FF;" vertex="1" parent="Df2gS6vvleMVA9pJTp9Y-33">
          <mxGeometry x="22.5" y="630" width="160" height="210" as="geometry" />
        </mxCell>
        <mxCell id="Df2gS6vvleMVA9pJTp9Y-46" value="state Id" style="rounded=1;whiteSpace=wrap;html=1;" vertex="1" parent="Df2gS6vvleMVA9pJTp9Y-34">
          <mxGeometry x="20" y="38" width="120" height="20" as="geometry" />
        </mxCell>
        <mxCell id="Df2gS6vvleMVA9pJTp9Y-62" value="transitionStates" style="swimlane;childLayout=stackLayout;resizeParent=1;resizeParentMax=0;horizontal=1;startSize=20;horizontalStack=0;html=1;" vertex="1" parent="Df2gS6vvleMVA9pJTp9Y-34">
          <mxGeometry x="16" y="68" width="120" height="120" as="geometry" />
        </mxCell>
        <mxCell id="Df2gS6vvleMVA9pJTp9Y-63" value="" style="swimlane;startSize=20;horizontal=0;html=1;" vertex="1" parent="Df2gS6vvleMVA9pJTp9Y-62">
          <mxGeometry y="20" width="120" height="30" as="geometry" />
        </mxCell>
        <mxCell id="Df2gS6vvleMVA9pJTp9Y-67" value="Transition 1" style="text;strokeColor=none;fillColor=none;align=left;verticalAlign=top;spacingLeft=4;spacingRight=4;overflow=hidden;rotatable=0;points=[[0,0.5],[1,0.5]];portConstraint=eastwest;whiteSpace=wrap;html=1;" vertex="1" parent="Df2gS6vvleMVA9pJTp9Y-63">
          <mxGeometry x="30" y="4" width="80" height="26" as="geometry" />
        </mxCell>
        <mxCell id="Df2gS6vvleMVA9pJTp9Y-65" value="" style="swimlane;startSize=20;horizontal=0;html=1;" vertex="1" parent="Df2gS6vvleMVA9pJTp9Y-62">
          <mxGeometry y="50" width="120" height="40" as="geometry" />
        </mxCell>
        <mxCell id="Df2gS6vvleMVA9pJTp9Y-68" value="Transition 2" style="text;strokeColor=none;fillColor=none;align=left;verticalAlign=top;spacingLeft=4;spacingRight=4;overflow=hidden;rotatable=0;points=[[0,0.5],[1,0.5]];portConstraint=eastwest;whiteSpace=wrap;html=1;" vertex="1" parent="Df2gS6vvleMVA9pJTp9Y-65">
          <mxGeometry x="30" y="4" width="80" height="26" as="geometry" />
        </mxCell>
        <mxCell id="Df2gS6vvleMVA9pJTp9Y-66" value="" style="swimlane;startSize=20;horizontal=0;html=1;" vertex="1" parent="Df2gS6vvleMVA9pJTp9Y-62">
          <mxGeometry y="90" width="120" height="30" as="geometry" />
        </mxCell>
        <mxCell id="Df2gS6vvleMVA9pJTp9Y-69" value="Transition 3" style="text;strokeColor=none;fillColor=none;align=left;verticalAlign=top;spacingLeft=4;spacingRight=4;overflow=hidden;rotatable=0;points=[[0,0.5],[1,0.5]];portConstraint=eastwest;whiteSpace=wrap;html=1;" vertex="1" parent="Df2gS6vvleMVA9pJTp9Y-66">
          <mxGeometry x="30" y="1" width="80" height="26" as="geometry" />
        </mxCell>
        <mxCell id="Df2gS6vvleMVA9pJTp9Y-35" value="*generatedState" style="rounded=1;whiteSpace=wrap;html=1;" vertex="1" parent="Df2gS6vvleMVA9pJTp9Y-33">
          <mxGeometry x="10" y="63" width="120" height="20" as="geometry" />
        </mxCell>
        <mxCell id="Df2gS6vvleMVA9pJTp9Y-36" value="*decoratedMech" style="rounded=1;whiteSpace=wrap;html=1;" vertex="1" parent="Df2gS6vvleMVA9pJTp9Y-33">
          <mxGeometry x="10" y="32" width="120" height="20" as="geometry" />
        </mxCell>
        <mxCell id="Df2gS6vvleMVA9pJTp9Y-78" value="Init()" style="swimlane;whiteSpace=wrap;html=1;" vertex="1" parent="Df2gS6vvleMVA9pJTp9Y-33">
          <mxGeometry x="25" y="110" width="155" height="100" as="geometry" />
        </mxCell>
        <mxCell id="Df2gS6vvleMVA9pJTp9Y-79" value="User code (Optional)" style="rounded=1;whiteSpace=wrap;html=1;" vertex="1" parent="Df2gS6vvleMVA9pJTp9Y-78">
          <mxGeometry x="20" y="29" width="120" height="20" as="geometry" />
        </mxCell>
        <mxCell id="Df2gS6vvleMVA9pJTp9Y-80" value="Call Init" style="rounded=1;whiteSpace=wrap;html=1;" vertex="1" parent="Df2gS6vvleMVA9pJTp9Y-78">
          <mxGeometry x="20" y="52" width="120" height="20" as="geometry" />
        </mxCell>
        <mxCell id="Df2gS6vvleMVA9pJTp9Y-81" value="User code (Optional)" style="rounded=1;whiteSpace=wrap;html=1;" vertex="1" parent="Df2gS6vvleMVA9pJTp9Y-78">
          <mxGeometry x="17.5" y="75" width="120" height="20" as="geometry" />
        </mxCell>
        <mxCell id="Df2gS6vvleMVA9pJTp9Y-125" value="Exit()" style="swimlane;whiteSpace=wrap;html=1;" vertex="1" parent="Df2gS6vvleMVA9pJTp9Y-33">
          <mxGeometry x="25" y="330" width="155" height="100" as="geometry" />
        </mxCell>
        <mxCell id="Df2gS6vvleMVA9pJTp9Y-126" value="User code (Optional)" style="rounded=1;whiteSpace=wrap;html=1;" vertex="1" parent="Df2gS6vvleMVA9pJTp9Y-125">
          <mxGeometry x="20" y="29" width="120" height="20" as="geometry" />
        </mxCell>
        <mxCell id="Df2gS6vvleMVA9pJTp9Y-127" value="Call Exit" style="rounded=1;whiteSpace=wrap;html=1;" vertex="1" parent="Df2gS6vvleMVA9pJTp9Y-125">
          <mxGeometry x="20" y="52" width="120" height="20" as="geometry" />
        </mxCell>
        <mxCell id="Df2gS6vvleMVA9pJTp9Y-128" value="User code (Optional)" style="rounded=1;whiteSpace=wrap;html=1;" vertex="1" parent="Df2gS6vvleMVA9pJTp9Y-125">
          <mxGeometry x="17.5" y="75" width="120" height="20" as="geometry" />
        </mxCell>
        <mxCell id="Df2gS6vvleMVA9pJTp9Y-129" value="Exit()" style="swimlane;whiteSpace=wrap;html=1;" vertex="1" parent="Df2gS6vvleMVA9pJTp9Y-33">
          <mxGeometry x="270" y="375" width="155" height="65" as="geometry" />
        </mxCell>
        <mxCell id="Df2gS6vvleMVA9pJTp9Y-130" value="Call Exit" style="rounded=1;whiteSpace=wrap;html=1;" vertex="1" parent="Df2gS6vvleMVA9pJTp9Y-129">
          <mxGeometry x="20" y="33" width="120" height="20" as="geometry" />
        </mxCell>
        <mxCell id="Df2gS6vvleMVA9pJTp9Y-135" style="edgeStyle=entityRelationEdgeStyle;rounded=0;orthogonalLoop=1;jettySize=auto;html=1;startArrow=none;endArrow=classic;segment=10;curved=1;sourcePerimeterSpacing=0;targetPerimeterSpacing=0;exitX=1;exitY=0.5;exitDx=0;exitDy=0;entryX=0;entryY=0.5;entryDx=0;entryDy=0;endFill=1;" edge="1" parent="Df2gS6vvleMVA9pJTp9Y-33" source="Df2gS6vvleMVA9pJTp9Y-127" target="Df2gS6vvleMVA9pJTp9Y-130">
          <mxGeometry relative="1" as="geometry">
            <mxPoint x="300" y="318" as="targetPoint" />
            <mxPoint x="175" y="292" as="sourcePoint" />
            <Array as="points">
              <mxPoint x="270" y="410" />
            </Array>
          </mxGeometry>
        </mxCell>
        <mxCell id="Df2gS6vvleMVA9pJTp9Y-137" value="AtTarget()" style="swimlane;whiteSpace=wrap;html=1;" vertex="1" parent="Df2gS6vvleMVA9pJTp9Y-33">
          <mxGeometry x="25" y="440" width="155" height="100" as="geometry" />
        </mxCell>
        <mxCell id="Df2gS6vvleMVA9pJTp9Y-138" value="User code (Optional)" style="rounded=1;whiteSpace=wrap;html=1;" vertex="1" parent="Df2gS6vvleMVA9pJTp9Y-137">
          <mxGeometry x="20" y="29" width="120" height="20" as="geometry" />
        </mxCell>
        <mxCell id="Df2gS6vvleMVA9pJTp9Y-139" value="Call AtTarget" style="rounded=1;whiteSpace=wrap;html=1;" vertex="1" parent="Df2gS6vvleMVA9pJTp9Y-137">
          <mxGeometry x="20" y="52" width="120" height="20" as="geometry" />
        </mxCell>
        <mxCell id="Df2gS6vvleMVA9pJTp9Y-140" value="User code (Optional)" style="rounded=1;whiteSpace=wrap;html=1;" vertex="1" parent="Df2gS6vvleMVA9pJTp9Y-137">
          <mxGeometry x="17.5" y="75" width="120" height="20" as="geometry" />
        </mxCell>
        <mxCell id="Df2gS6vvleMVA9pJTp9Y-150" value="IsTransitionCondition()" style="swimlane;whiteSpace=wrap;html=1;" vertex="1" parent="Df2gS6vvleMVA9pJTp9Y-33">
          <mxGeometry x="25" y="550" width="155" height="60" as="geometry" />
        </mxCell>
        <mxCell id="Df2gS6vvleMVA9pJTp9Y-151" value="User code" style="rounded=1;whiteSpace=wrap;html=1;" vertex="1" parent="Df2gS6vvleMVA9pJTp9Y-150">
          <mxGeometry x="20" y="29" width="120" height="20" as="geometry" />
        </mxCell>
        <mxCell id="Df2gS6vvleMVA9pJTp9Y-37" value="State 1 generated" style="swimlane;whiteSpace=wrap;html=1;fillColor=#FF33FF;" vertex="1" parent="1">
          <mxGeometry x="500" y="590" width="710" height="750" as="geometry">
            <mxRectangle x="350" y="570" width="140" height="30" as="alternateBounds" />
          </mxGeometry>
        </mxCell>
        <mxCell id="Df2gS6vvleMVA9pJTp9Y-72" value="Init()" style="swimlane;whiteSpace=wrap;html=1;" vertex="1" parent="Df2gS6vvleMVA9pJTp9Y-37">
          <mxGeometry x="20" y="75" width="155" height="100" as="geometry" />
        </mxCell>
        <mxCell id="Df2gS6vvleMVA9pJTp9Y-75" value="Set targets" style="rounded=1;whiteSpace=wrap;html=1;" vertex="1" parent="Df2gS6vvleMVA9pJTp9Y-72">
          <mxGeometry x="20" y="40" width="120" height="20" as="geometry" />
        </mxCell>
        <mxCell id="Df2gS6vvleMVA9pJTp9Y-76" value="Call Init" style="rounded=1;whiteSpace=wrap;html=1;" vertex="1" parent="Df2gS6vvleMVA9pJTp9Y-72">
          <mxGeometry x="20" y="70" width="120" height="20" as="geometry" />
        </mxCell>
        <mxCell id="Df2gS6vvleMVA9pJTp9Y-83" value="Base State generated" style="swimlane;whiteSpace=wrap;html=1;fillColor=#FF33FF;" vertex="1" parent="Df2gS6vvleMVA9pJTp9Y-37">
          <mxGeometry x="290" y="39" width="370" height="681" as="geometry">
            <mxRectangle x="350" y="570" width="140" height="30" as="alternateBounds" />
          </mxGeometry>
        </mxCell>
        <mxCell id="Df2gS6vvleMVA9pJTp9Y-84" value="State" style="swimlane;whiteSpace=wrap;html=1;fillColor=#FF33FF;" vertex="1" parent="Df2gS6vvleMVA9pJTp9Y-83">
          <mxGeometry x="33" y="561" width="150" height="100" as="geometry" />
        </mxCell>
        <mxCell id="Df2gS6vvleMVA9pJTp9Y-85" value="transitionStates" style="rounded=1;whiteSpace=wrap;html=1;" vertex="1" parent="Df2gS6vvleMVA9pJTp9Y-84">
          <mxGeometry x="20" y="30" width="120" height="20" as="geometry" />
        </mxCell>
        <mxCell id="Df2gS6vvleMVA9pJTp9Y-86" value="state Id" style="rounded=1;whiteSpace=wrap;html=1;" vertex="1" parent="Df2gS6vvleMVA9pJTp9Y-84">
          <mxGeometry x="20" y="60" width="120" height="20" as="geometry" />
        </mxCell>
        <mxCell id="Df2gS6vvleMVA9pJTp9Y-87" value="*generated Mech" style="rounded=1;whiteSpace=wrap;html=1;" vertex="1" parent="Df2gS6vvleMVA9pJTp9Y-83">
          <mxGeometry x="15" y="40" width="120" height="20" as="geometry" />
        </mxCell>
        <mxCell id="Df2gS6vvleMVA9pJTp9Y-88" value="Init()" style="swimlane;whiteSpace=wrap;html=1;" vertex="1" parent="Df2gS6vvleMVA9pJTp9Y-83">
          <mxGeometry x="20" y="80" width="155" height="100" as="geometry" />
        </mxCell>
        <mxCell id="Df2gS6vvleMVA9pJTp9Y-89" value="Init Motor states" style="rounded=1;whiteSpace=wrap;html=1;" vertex="1" parent="Df2gS6vvleMVA9pJTp9Y-88">
          <mxGeometry x="20" y="27" width="120" height="20" as="geometry" />
        </mxCell>
        <mxCell id="Df2gS6vvleMVA9pJTp9Y-90" value="Init Solenoid states" style="rounded=1;whiteSpace=wrap;html=1;" vertex="1" parent="Df2gS6vvleMVA9pJTp9Y-88">
          <mxGeometry x="20" y="50" width="120" height="20" as="geometry" />
        </mxCell>
        <mxCell id="Df2gS6vvleMVA9pJTp9Y-94" value="Init Servo states" style="rounded=1;whiteSpace=wrap;html=1;" vertex="1" parent="Df2gS6vvleMVA9pJTp9Y-88">
          <mxGeometry x="20" y="73" width="120" height="20" as="geometry" />
        </mxCell>
        <mxCell id="Df2gS6vvleMVA9pJTp9Y-131" value="Exit()" style="swimlane;whiteSpace=wrap;html=1;" vertex="1" parent="Df2gS6vvleMVA9pJTp9Y-83">
          <mxGeometry x="25" y="321" width="155" height="100" as="geometry" />
        </mxCell>
        <mxCell id="Df2gS6vvleMVA9pJTp9Y-132" value="Exit Motor states" style="rounded=1;whiteSpace=wrap;html=1;" vertex="1" parent="Df2gS6vvleMVA9pJTp9Y-131">
          <mxGeometry x="20" y="27" width="120" height="20" as="geometry" />
        </mxCell>
        <mxCell id="Df2gS6vvleMVA9pJTp9Y-133" value="Exit Solenoid states" style="rounded=1;whiteSpace=wrap;html=1;" vertex="1" parent="Df2gS6vvleMVA9pJTp9Y-131">
          <mxGeometry x="20" y="50" width="120" height="20" as="geometry" />
        </mxCell>
        <mxCell id="Df2gS6vvleMVA9pJTp9Y-134" value="Exit Servo states" style="rounded=1;whiteSpace=wrap;html=1;" vertex="1" parent="Df2gS6vvleMVA9pJTp9Y-131">
          <mxGeometry x="20" y="73" width="120" height="20" as="geometry" />
        </mxCell>
        <mxCell id="Df2gS6vvleMVA9pJTp9Y-118" value="Run()" style="swimlane;whiteSpace=wrap;html=1;" vertex="1" parent="Df2gS6vvleMVA9pJTp9Y-83">
          <mxGeometry x="22.5" y="199" width="155" height="100" as="geometry" />
        </mxCell>
        <mxCell id="Df2gS6vvleMVA9pJTp9Y-119" value="Run Motor states" style="rounded=1;whiteSpace=wrap;html=1;" vertex="1" parent="Df2gS6vvleMVA9pJTp9Y-118">
          <mxGeometry x="20" y="27" width="120" height="20" as="geometry" />
        </mxCell>
        <mxCell id="Df2gS6vvleMVA9pJTp9Y-120" value="Run Solenoid states" style="rounded=1;whiteSpace=wrap;html=1;" vertex="1" parent="Df2gS6vvleMVA9pJTp9Y-118">
          <mxGeometry x="20" y="50" width="120" height="20" as="geometry" />
        </mxCell>
        <mxCell id="Df2gS6vvleMVA9pJTp9Y-121" value="Run Servo states" style="rounded=1;whiteSpace=wrap;html=1;" vertex="1" parent="Df2gS6vvleMVA9pJTp9Y-118">
          <mxGeometry x="20" y="73" width="120" height="20" as="geometry" />
        </mxCell>
        <mxCell id="Df2gS6vvleMVA9pJTp9Y-144" value="AtTarget()" style="swimlane;whiteSpace=wrap;html=1;" vertex="1" parent="Df2gS6vvleMVA9pJTp9Y-83">
          <mxGeometry x="22.5" y="431" width="155" height="100" as="geometry" />
        </mxCell>
        <mxCell id="Df2gS6vvleMVA9pJTp9Y-145" value="AtTarget Motor states" style="rounded=1;whiteSpace=wrap;html=1;" vertex="1" parent="Df2gS6vvleMVA9pJTp9Y-144">
          <mxGeometry x="20" y="27" width="120" height="20" as="geometry" />
        </mxCell>
        <mxCell id="Df2gS6vvleMVA9pJTp9Y-146" value="AtTarget&amp;nbsp;Solenoid states" style="rounded=1;whiteSpace=wrap;html=1;" vertex="1" parent="Df2gS6vvleMVA9pJTp9Y-144">
          <mxGeometry x="10" y="50" width="140" height="20" as="geometry" />
        </mxCell>
        <mxCell id="Df2gS6vvleMVA9pJTp9Y-147" value="AtTarget&amp;nbsp;Servo states" style="rounded=1;whiteSpace=wrap;html=1;" vertex="1" parent="Df2gS6vvleMVA9pJTp9Y-144">
          <mxGeometry x="20" y="73" width="120" height="20" as="geometry" />
        </mxCell>
        <mxCell id="Df2gS6vvleMVA9pJTp9Y-154" value="" style="shape=curlyBracket;whiteSpace=wrap;html=1;rounded=1;flipH=1;labelPosition=right;verticalLabelPosition=middle;align=left;verticalAlign=middle;size=0.5;" vertex="1" parent="Df2gS6vvleMVA9pJTp9Y-83">
          <mxGeometry x="183" y="81" width="27" height="450" as="geometry" />
        </mxCell>
        <mxCell id="Df2gS6vvleMVA9pJTp9Y-156" value="Accesses the motors, solenoids, servos through the generated mech pointer" style="text;html=1;strokeColor=none;fillColor=none;align=center;verticalAlign=middle;whiteSpace=wrap;rounded=0;" vertex="1" parent="Df2gS6vvleMVA9pJTp9Y-83">
          <mxGeometry x="210" y="266" width="120" height="80" as="geometry" />
        </mxCell>
        <mxCell id="Df2gS6vvleMVA9pJTp9Y-174" value="&lt;font style=&quot;font-size: 32px;&quot; color=&quot;#ff3333&quot;&gt;Not used&lt;/font&gt;" style="text;html=1;strokeColor=none;fillColor=none;align=center;verticalAlign=middle;whiteSpace=wrap;rounded=0;" vertex="1" parent="Df2gS6vvleMVA9pJTp9Y-83">
          <mxGeometry x="220" y="601" width="150" height="30" as="geometry" />
        </mxCell>
        <mxCell id="Df2gS6vvleMVA9pJTp9Y-175" value="" style="endArrow=classic;html=1;rounded=0;exitX=0;exitY=0.5;exitDx=0;exitDy=0;strokeColor=#FF3333;strokeWidth=6;entryX=1;entryY=0.5;entryDx=0;entryDy=0;" edge="1" parent="Df2gS6vvleMVA9pJTp9Y-83" source="Df2gS6vvleMVA9pJTp9Y-174" target="Df2gS6vvleMVA9pJTp9Y-84">
          <mxGeometry width="50" height="50" relative="1" as="geometry">
            <mxPoint x="-320" y="741" as="sourcePoint" />
            <mxPoint x="150" y="471" as="targetPoint" />
          </mxGeometry>
        </mxCell>
        <mxCell id="Df2gS6vvleMVA9pJTp9Y-91" style="edgeStyle=entityRelationEdgeStyle;rounded=0;orthogonalLoop=1;jettySize=auto;html=1;startArrow=none;endArrow=classic;segment=10;curved=1;sourcePerimeterSpacing=0;targetPerimeterSpacing=0;exitX=1;exitY=0.5;exitDx=0;exitDy=0;entryX=0;entryY=0.5;entryDx=0;entryDy=0;endFill=1;" edge="1" parent="Df2gS6vvleMVA9pJTp9Y-37" source="Df2gS6vvleMVA9pJTp9Y-76" target="Df2gS6vvleMVA9pJTp9Y-88">
          <mxGeometry relative="1" as="geometry">
            <mxPoint x="63" y="100" as="targetPoint" />
            <mxPoint x="-75" y="82" as="sourcePoint" />
            <Array as="points">
              <mxPoint x="200" y="130" />
              <mxPoint x="200" y="120" />
            </Array>
          </mxGeometry>
        </mxCell>
        <mxCell id="Df2gS6vvleMVA9pJTp9Y-111" value="Run()" style="swimlane;whiteSpace=wrap;html=1;" vertex="1" parent="Df2gS6vvleMVA9pJTp9Y-37">
          <mxGeometry x="-225" y="98" width="155" height="100" as="geometry" />
        </mxCell>
        <mxCell id="Df2gS6vvleMVA9pJTp9Y-112" value="User code (Optional)" style="rounded=1;whiteSpace=wrap;html=1;" vertex="1" parent="Df2gS6vvleMVA9pJTp9Y-111">
          <mxGeometry x="20" y="29" width="120" height="20" as="geometry" />
        </mxCell>
        <mxCell id="Df2gS6vvleMVA9pJTp9Y-113" value="Call Run" style="rounded=1;whiteSpace=wrap;html=1;" vertex="1" parent="Df2gS6vvleMVA9pJTp9Y-111">
          <mxGeometry x="20" y="52" width="120" height="20" as="geometry" />
        </mxCell>
        <mxCell id="Df2gS6vvleMVA9pJTp9Y-114" value="User code (Optional)" style="rounded=1;whiteSpace=wrap;html=1;" vertex="1" parent="Df2gS6vvleMVA9pJTp9Y-111">
          <mxGeometry x="17.5" y="75" width="120" height="20" as="geometry" />
        </mxCell>
        <mxCell id="Df2gS6vvleMVA9pJTp9Y-115" value="Run()" style="swimlane;whiteSpace=wrap;html=1;" vertex="1" parent="Df2gS6vvleMVA9pJTp9Y-37">
          <mxGeometry x="20" y="185" width="155" height="65" as="geometry" />
        </mxCell>
        <mxCell id="Df2gS6vvleMVA9pJTp9Y-117" value="Call Run" style="rounded=1;whiteSpace=wrap;html=1;" vertex="1" parent="Df2gS6vvleMVA9pJTp9Y-115">
          <mxGeometry x="20" y="33" width="120" height="20" as="geometry" />
        </mxCell>
        <mxCell id="Df2gS6vvleMVA9pJTp9Y-122" style="edgeStyle=entityRelationEdgeStyle;rounded=0;orthogonalLoop=1;jettySize=auto;html=1;startArrow=none;endArrow=classic;segment=10;curved=1;sourcePerimeterSpacing=0;targetPerimeterSpacing=0;exitX=1;exitY=0.5;exitDx=0;exitDy=0;entryX=0;entryY=0.5;entryDx=0;entryDy=0;endFill=1;" edge="1" parent="Df2gS6vvleMVA9pJTp9Y-37" source="Df2gS6vvleMVA9pJTp9Y-113" target="Df2gS6vvleMVA9pJTp9Y-117">
          <mxGeometry relative="1" as="geometry">
            <mxPoint x="30" y="135" as="targetPoint" />
            <mxPoint x="-75" y="102" as="sourcePoint" />
          </mxGeometry>
        </mxCell>
        <mxCell id="Df2gS6vvleMVA9pJTp9Y-124" style="edgeStyle=entityRelationEdgeStyle;rounded=0;orthogonalLoop=1;jettySize=auto;html=1;startArrow=none;endArrow=classic;segment=10;curved=1;sourcePerimeterSpacing=0;targetPerimeterSpacing=0;exitX=1;exitY=0.5;exitDx=0;exitDy=0;entryX=0;entryY=0.5;entryDx=0;entryDy=0;endFill=1;" edge="1" parent="Df2gS6vvleMVA9pJTp9Y-37" source="Df2gS6vvleMVA9pJTp9Y-117" target="Df2gS6vvleMVA9pJTp9Y-118">
          <mxGeometry relative="1" as="geometry">
            <mxPoint x="323" y="179" as="targetPoint" />
            <mxPoint x="170" y="165" as="sourcePoint" />
            <Array as="points">
              <mxPoint x="210" y="140" />
              <mxPoint x="210" y="130" />
            </Array>
          </mxGeometry>
        </mxCell>
        <mxCell id="Df2gS6vvleMVA9pJTp9Y-141" value="AtTarget()" style="swimlane;whiteSpace=wrap;html=1;" vertex="1" parent="Df2gS6vvleMVA9pJTp9Y-37">
          <mxGeometry x="20" y="410" width="155" height="65" as="geometry" />
        </mxCell>
        <mxCell id="Df2gS6vvleMVA9pJTp9Y-142" value="Call AtTarget" style="rounded=1;whiteSpace=wrap;html=1;" vertex="1" parent="Df2gS6vvleMVA9pJTp9Y-141">
          <mxGeometry x="20" y="33" width="120" height="20" as="geometry" />
        </mxCell>
        <mxCell id="Df2gS6vvleMVA9pJTp9Y-148" style="edgeStyle=entityRelationEdgeStyle;rounded=0;orthogonalLoop=1;jettySize=auto;html=1;startArrow=none;endArrow=classic;segment=10;curved=1;sourcePerimeterSpacing=0;targetPerimeterSpacing=0;exitX=1;exitY=0.5;exitDx=0;exitDy=0;entryX=0;entryY=0.5;entryDx=0;entryDy=0;endFill=1;" edge="1" parent="Df2gS6vvleMVA9pJTp9Y-37" source="Df2gS6vvleMVA9pJTp9Y-142" target="Df2gS6vvleMVA9pJTp9Y-144">
          <mxGeometry relative="1" as="geometry">
            <mxPoint x="323" y="399" as="targetPoint" />
            <mxPoint x="170" y="348" as="sourcePoint" />
            <Array as="points">
              <mxPoint x="220" y="260" />
              <mxPoint x="220" y="250" />
            </Array>
          </mxGeometry>
        </mxCell>
        <mxCell id="Df2gS6vvleMVA9pJTp9Y-47" style="edgeStyle=entityRelationEdgeStyle;rounded=0;orthogonalLoop=1;jettySize=auto;html=1;startArrow=none;endArrow=classic;segment=10;curved=1;sourcePerimeterSpacing=0;targetPerimeterSpacing=0;exitX=1;exitY=0.5;exitDx=0;exitDy=0;endFill=1;entryX=-0.002;entryY=0.022;entryDx=0;entryDy=0;entryPerimeter=0;" edge="1" parent="1" source="Df2gS6vvleMVA9pJTp9Y-35" target="Df2gS6vvleMVA9pJTp9Y-37">
          <mxGeometry relative="1" as="geometry">
            <mxPoint x="360" y="500" as="targetPoint" />
            <mxPoint x="110" y="310" as="sourcePoint" />
          </mxGeometry>
        </mxCell>
        <mxCell id="Df2gS6vvleMVA9pJTp9Y-54" style="edgeStyle=entityRelationEdgeStyle;rounded=0;orthogonalLoop=1;jettySize=auto;html=1;startArrow=none;endArrow=none;segment=10;curved=1;sourcePerimeterSpacing=0;targetPerimeterSpacing=0;exitX=0.5;exitY=0;exitDx=0;exitDy=0;entryX=0.622;entryY=0.481;entryDx=0;entryDy=0;entryPerimeter=0;" edge="1" parent="1" source="Df2gS6vvleMVA9pJTp9Y-33" target="Df2gS6vvleMVA9pJTp9Y-53">
          <mxGeometry relative="1" as="geometry">
            <mxPoint x="370" y="535" as="targetPoint" />
            <mxPoint x="220" y="490" as="sourcePoint" />
          </mxGeometry>
        </mxCell>
        <mxCell id="Df2gS6vvleMVA9pJTp9Y-82" style="edgeStyle=entityRelationEdgeStyle;rounded=0;orthogonalLoop=1;jettySize=auto;html=1;startArrow=none;endArrow=classic;segment=10;curved=1;sourcePerimeterSpacing=0;targetPerimeterSpacing=0;exitX=1;exitY=0.5;exitDx=0;exitDy=0;entryX=0;entryY=0.5;entryDx=0;entryDy=0;endFill=1;" edge="1" parent="1" source="Df2gS6vvleMVA9pJTp9Y-80" target="Df2gS6vvleMVA9pJTp9Y-72">
          <mxGeometry relative="1" as="geometry">
            <mxPoint x="370" y="578" as="targetPoint" />
            <mxPoint x="220" y="490" as="sourcePoint" />
          </mxGeometry>
        </mxCell>
        <mxCell id="Df2gS6vvleMVA9pJTp9Y-92" style="edgeStyle=entityRelationEdgeStyle;rounded=0;orthogonalLoop=1;jettySize=auto;html=1;startArrow=none;endArrow=classic;segment=10;curved=1;sourcePerimeterSpacing=0;targetPerimeterSpacing=0;entryX=1;entryY=0;entryDx=0;entryDy=0;endFill=1;exitX=0;exitY=0.5;exitDx=0;exitDy=0;" edge="1" parent="1" source="Df2gS6vvleMVA9pJTp9Y-87" target="Df2gS6vvleMVA9pJTp9Y-6">
          <mxGeometry relative="1" as="geometry">
            <mxPoint x="743" y="670" as="targetPoint" />
            <mxPoint x="630" y="550" as="sourcePoint" />
            <Array as="points">
              <mxPoint x="710" y="540" />
              <mxPoint x="540" y="670" />
              <mxPoint x="630" y="460" />
              <mxPoint x="540" y="660" />
            </Array>
          </mxGeometry>
        </mxCell>
        <mxCell id="Df2gS6vvleMVA9pJTp9Y-136" style="edgeStyle=entityRelationEdgeStyle;rounded=0;orthogonalLoop=1;jettySize=auto;html=1;startArrow=none;endArrow=classic;segment=10;curved=1;sourcePerimeterSpacing=0;targetPerimeterSpacing=0;exitX=1;exitY=0.5;exitDx=0;exitDy=0;entryX=0;entryY=0.5;entryDx=0;entryDy=0;endFill=1;" edge="1" parent="1" source="Df2gS6vvleMVA9pJTp9Y-130" target="Df2gS6vvleMVA9pJTp9Y-131">
          <mxGeometry relative="1" as="geometry">
            <mxPoint x="653" y="799" as="targetPoint" />
            <mxPoint x="500" y="748" as="sourcePoint" />
            <Array as="points">
              <mxPoint x="550" y="660" />
              <mxPoint x="550" y="650" />
            </Array>
          </mxGeometry>
        </mxCell>
        <mxCell id="Df2gS6vvleMVA9pJTp9Y-143" style="edgeStyle=entityRelationEdgeStyle;rounded=0;orthogonalLoop=1;jettySize=auto;html=1;startArrow=none;endArrow=classic;segment=10;curved=1;sourcePerimeterSpacing=0;targetPerimeterSpacing=0;exitX=1;exitY=0.5;exitDx=0;exitDy=0;entryX=0;entryY=0.5;entryDx=0;entryDy=0;endFill=1;" edge="1" parent="1" source="Df2gS6vvleMVA9pJTp9Y-139" target="Df2gS6vvleMVA9pJTp9Y-142">
          <mxGeometry relative="1" as="geometry">
            <mxPoint x="380" y="858" as="targetPoint" />
            <mxPoint x="255" y="832" as="sourcePoint" />
            <Array as="points">
              <mxPoint x="350" y="950" />
            </Array>
          </mxGeometry>
        </mxCell>
        <mxCell id="Df2gS6vvleMVA9pJTp9Y-155" value="Text" style="text;html=1;strokeColor=none;fillColor=none;align=center;verticalAlign=middle;whiteSpace=wrap;rounded=0;" vertex="1" parent="1">
          <mxGeometry x="730" y="1020" width="60" height="30" as="geometry" />
        </mxCell>
        <mxCell id="Df2gS6vvleMVA9pJTp9Y-161" value="" style="edgeStyle=entityRelationEdgeStyle;rounded=0;orthogonalLoop=1;jettySize=auto;html=1;startArrow=none;endArrow=none;segment=10;curved=1;sourcePerimeterSpacing=0;targetPerimeterSpacing=0;exitX=1;exitY=0.5;exitDx=0;exitDy=0;entryX=0;entryY=0.5;entryDx=0;entryDy=0;" edge="1" parent="1" source="Df2gS6vvleMVA9pJTp9Y-27" target="Df2gS6vvleMVA9pJTp9Y-30">
          <mxGeometry relative="1" as="geometry">
            <mxPoint x="426" y="178" as="targetPoint" />
            <mxPoint x="180" y="130" as="sourcePoint" />
            <Array as="points">
              <mxPoint x="350" y="180" />
              <mxPoint x="300" y="180" />
              <mxPoint x="290" y="250" />
            </Array>
          </mxGeometry>
        </mxCell>
        <mxCell id="Df2gS6vvleMVA9pJTp9Y-158" value="m_servoMap" style="rounded=1;whiteSpace=wrap;html=1;" vertex="1" parent="1">
          <mxGeometry x="300" y="150" width="90" height="20" as="geometry" />
        </mxCell>
        <mxCell id="Df2gS6vvleMVA9pJTp9Y-163" value="" style="endArrow=classic;html=1;rounded=0;entryX=0.5;entryY=1;entryDx=0;entryDy=0;exitX=0.5;exitY=0;exitDx=0;exitDy=0;" edge="1" parent="1" source="Df2gS6vvleMVA9pJTp9Y-10" target="Df2gS6vvleMVA9pJTp9Y-7">
          <mxGeometry width="50" height="50" relative="1" as="geometry">
            <mxPoint x="600" y="480" as="sourcePoint" />
            <mxPoint x="650" y="430" as="targetPoint" />
          </mxGeometry>
        </mxCell>
        <mxCell id="Df2gS6vvleMVA9pJTp9Y-164" value="" style="edgeStyle=elbowEdgeStyle;elbow=horizontal;endArrow=classic;html=1;curved=0;rounded=0;endSize=8;startSize=8;entryX=0;entryY=0;entryDx=0;entryDy=0;" edge="1" parent="1" target="Df2gS6vvleMVA9pJTp9Y-8">
          <mxGeometry width="50" height="50" relative="1" as="geometry">
            <mxPoint x="260" y="510" as="sourcePoint" />
            <mxPoint x="590" y="420" as="targetPoint" />
            <Array as="points">
              <mxPoint x="30" y="270" />
            </Array>
          </mxGeometry>
        </mxCell>
        <mxCell id="Df2gS6vvleMVA9pJTp9Y-172" value="&lt;font style=&quot;font-size: 32px;&quot; color=&quot;#ff3333&quot;&gt;Not used, Delete?&lt;/font&gt;" style="text;html=1;strokeColor=none;fillColor=none;align=center;verticalAlign=middle;whiteSpace=wrap;rounded=0;" vertex="1" parent="1">
          <mxGeometry x="1070" y="170" width="150" height="30" as="geometry" />
        </mxCell>
        <mxCell id="Df2gS6vvleMVA9pJTp9Y-173" value="" style="endArrow=classic;html=1;rounded=0;entryX=1;entryY=0.25;entryDx=0;entryDy=0;exitX=0;exitY=0.5;exitDx=0;exitDy=0;strokeColor=#FF3333;strokeWidth=6;" edge="1" parent="1" source="Df2gS6vvleMVA9pJTp9Y-172" target="Df2gS6vvleMVA9pJTp9Y-17">
          <mxGeometry width="50" height="50" relative="1" as="geometry">
            <mxPoint x="540" y="440" as="sourcePoint" />
            <mxPoint x="590" y="390" as="targetPoint" />
          </mxGeometry>
        </mxCell>
      </root>
    </mxGraphModel>
  </diagram>
</mxfile>
